<?xml version="1.0" standalone="no"?><!DOCTYPE svg PUBLIC "-//W3C//DTD SVG 1.1//EN" "http://www.w3.org/Graphics/SVG/1.1/DTD/svg11.dtd"><svg t="1761385692180" class="icon" viewBox="0 0 1280 1024" version="1.1" xmlns="http://www.w3.org/2000/svg" p-id="7124" xmlns:xlink="http://www.w3.org/1999/xlink" width="40" height="32"><path d="M549.302857 0l-46.555428 292.571429 113.042285 197.705142-127.707428 128.365715L381.988571 512l-212.224 213.321143v128h435.419429L683.958857 1024h-577.828571c-56.32 0-102.692571-44.617143-105.947429-100.425143L0 917.357714V106.642286C0 48.018286 47.762286 0 106.093714 0H549.302857z m617.874286 0c58.368 0 106.130286 48.018286 106.130286 106.678857v810.642286c0 58.697143-47.762286 106.678857-106.130286 106.678857H736.987429l-42.678858-170.678857h409.234286v-298.642286L827.611429 277.321143l-89.014858 89.453714-74.532571-125.659428L767.707429 0zM297.106286 170.678857a127.707429 127.707429 0 0 0-127.341715 128c0 70.656 57.051429 128 127.341715 128a127.707429 127.707429 0 0 0 127.341714-128c0-70.692571-57.051429-128-127.341714-128z" fill="#ffffff" p-id="7125"></path></svg>