<?xml version="1.0" standalone="no"?><!DOCTYPE svg PUBLIC "-//W3C//DTD SVG 1.1//EN" "http://www.w3.org/Graphics/SVG/1.1/DTD/svg11.dtd"><svg t="1761193634466" class="icon" viewBox="0 0 1024 1024" version="1.1" xmlns="http://www.w3.org/2000/svg" p-id="11861" xmlns:xlink="http://www.w3.org/1999/xlink" width="32" height="32"><path d="M855.478857 109.714286H168.521143A95.524571 95.524571 0 0 0 73.142857 205.165714v588.032a95.488 95.488 0 0 0 95.378286 95.378286h686.957714A95.488 95.488 0 0 0 950.857143 793.234286V205.129143C950.857143 152.539429 908.068571 109.714286 855.478857 109.714286z m-4.681143 59.721143c22.272 0 40.374857 18.102857 40.374857 40.374857v157.878857l-231.131428-0.365714-0.073143-197.851429h190.829714z m-253.110857 0l0.073143 405.138285-57.782857-34.852571-5.924572-2.998857-0.365714 0.658285a31.085714 31.085714 0 0 0-25.892571 2.633143c-1.243429 0.804571-2.121143 1.682286-1.938286 1.901715l-55.588571 30.902857-0.073143-403.382857h147.492571zM132.864 209.810286c0-22.272 18.066286-40.374857 40.338286-40.374857h214.674285l0.036572 198.290285-255.085714-0.402285V209.810286z m758.308571 578.706285c0 22.308571-18.102857 40.374857-40.374857 40.374858H173.202286c-22.272 0-40.374857-18.102857-40.374857-40.374858v-358.912l255.122285 0.365715 0.036572 195.657143c0 20.150857 20.041143 36.571429 40.155428 29.586285l0.548572 0.877715 95.561143-53.101715 88.649142 53.869715a32 32 0 0 0 42.678858-10.898286 29.110857 29.110857 0 0 0 3.876571-16.896l0.073143-0.292572 0.512-0.512v-198.656l231.131428 0.365715v358.546285z" fill="#ffffff" p-id="11862"></path></svg>