<?xml version="1.0" standalone="no"?><!DOCTYPE svg PUBLIC "-//W3C//DTD SVG 1.1//EN" "http://www.w3.org/Graphics/SVG/1.1/DTD/svg11.dtd"><svg t="1761193766662" class="icon" viewBox="0 0 1024 1024" version="1.1" xmlns="http://www.w3.org/2000/svg" p-id="20974" xmlns:xlink="http://www.w3.org/1999/xlink" width="32" height="32"><path d="M941.056 502.784s-0.512 0 0 0l-0.512-152.064c0.512-41.984-20.992-79.36-52.224-99.84l-1.536-5.632-9.216-40.448c-7.68-33.28-28.16-60.416-54.784-77.312-19.968-12.288-43.008-19.456-67.072-19.456-9.216 0-18.944 1.024-28.16 3.072l-532.48 122.88h-3.584c-23.04 0-44.032 7.68-61.44 20.992h-0.512c-28.16 20.992-46.592 56.32-46.592 95.744v461.312c0 64 48.64 116.736 108.544 116.736h640.512c59.904 0 108.544-52.736 108.544-116.736v-150.016s0.512 0 0.512-0.512v-158.72z m-47.616 133.632h-175.616c-30.208 0-54.272-24.576-54.272-54.272 0-14.336 5.632-28.16 15.872-38.4s24.064-15.872 38.4-15.872h171.008c1.536 0 3.072 0 4.608 0.512v108.032z m-152.576-470.016c5.12-1.536 10.752-2.048 15.872-2.048 12.8 0 25.6 3.584 36.864 10.752 15.36 9.728 26.112 24.576 30.208 42.496l4.096 16.384H440.32l300.544-67.584z m152.576 645.632c0 36.352-27.648 65.536-60.928 65.536H191.488c-33.792 0-60.928-29.696-60.928-65.536V350.72c0-36.352 27.648-65.536 60.928-65.536h641.024c33.792 0 60.928 29.696 60.928 65.536v136.192h-175.616c-26.112 0-50.176 10.752-67.072 28.16-17.408 17.408-28.16 40.96-28.16 67.072 0 52.224 43.008 95.232 95.232 95.232h175.616v134.656z" p-id="20975" fill="#ffffff"></path><path d="M720.732915 602.783564a29.184 29.184 0 1 0 41.271688-41.273129 29.184 29.184 0 1 0-41.271688 41.273129Z" p-id="20976" fill="#ffffff"></path></svg>