<?xml version="1.0" standalone="no"?><!DOCTYPE svg PUBLIC "-//W3C//DTD SVG 1.1//EN" "http://www.w3.org/Graphics/SVG/1.1/DTD/svg11.dtd"><svg t="1761193919143" class="icon" viewBox="0 0 1024 1024" version="1.1" xmlns="http://www.w3.org/2000/svg" p-id="24857" xmlns:xlink="http://www.w3.org/1999/xlink" width="32" height="32"><path d="M498.56 621.12a74.88 74.88 0 0 1-21.12-2.88 78.72 78.72 0 0 1-19.52-7.04 83.84 83.84 0 0 1-16.96-10.56 154.56 154.56 0 0 1-15.04-13.44 75.84 75.84 0 0 0-9.92-8l-4.48-3.2-5.76 5.76-6.08 6.08-17.6 17.6-6.4 6.4-5.44 5.44a38.08 38.08 0 0 0 2.56 6.4 97.92 97.92 0 0 0 16.96 20.16 154.56 154.56 0 0 0 23.36 17.92 170.88 170.88 0 0 0 28.8 13.44 158.08 158.08 0 0 0 28.16 7.36V736h57.6v-53.12a156.16 156.16 0 0 0 37.44-9.6 104 104 0 0 0 32-20.8 79.68 79.68 0 0 0 19.84-30.4 103.04 103.04 0 0 0 6.72-37.76 97.92 97.92 0 0 0-7.68-40.32 93.44 93.44 0 0 0-21.12-29.12 131.2 131.2 0 0 0-29.12-20.16c-10.88-4.8-21.76-9.6-32-13.44l-32-10.56a196.48 196.48 0 0 1-26.88-10.56 67.84 67.84 0 0 1-17.28-11.84 21.12 21.12 0 0 1-5.76-15.04 27.2 27.2 0 0 1 2.56-11.2 22.08 22.08 0 0 1 7.36-9.28 40.32 40.32 0 0 1 14.4-7.04 88 88 0 0 1 41.28 0 73.92 73.92 0 0 1 16.96 4.8 105.28 105.28 0 0 1 14.72 7.36 84.48 84.48 0 0 1 11.52 8.96 44.48 44.48 0 0 0 9.28 7.04l4.8-5.12 5.12-4.8 23.04-23.36 5.44-5.12 5.12-5.12v-1.92a98.88 98.88 0 0 0-37.12-32 169.92 169.92 0 0 0-46.72-14.4V288h-57.6v53.44a143.04 143.04 0 0 0-35.2 10.24 91.84 91.84 0 0 0-29.44 20.8 85.76 85.76 0 0 0-17.28 28.16 99.2 99.2 0 0 0-5.44 32 84.8 84.8 0 0 0 29.44 67.2 125.44 125.44 0 0 0 29.44 18.88c10.24 4.8 21.12 9.28 32 13.12l32 10.56a158.08 158.08 0 0 1 26.56 10.88 70.72 70.72 0 0 1 17.6 13.44 26.24 26.24 0 0 1 5.76 17.28 32 32 0 0 1-12.8 27.2 79.36 79.36 0 0 1-46.08 9.92z" p-id="24858" fill="#ffffff"></path><path d="M505.92 64A441.6 441.6 0 0 0 136 266.88L75.84 232l14.08 197.76 177.92-86.72L192 299.2A376.64 376.64 0 0 1 505.92 128a384 384 0 0 1 0 768 377.6 377.6 0 0 1-328-192l-55.68 32a442.24 442.24 0 0 0 384 225.92 448 448 0 0 0 0-896z" p-id="24859" fill="#ffffff"></path></svg>