<?xml version="1.0" standalone="no"?><!DOCTYPE svg PUBLIC "-//W3C//DTD SVG 1.1//EN" "http://www.w3.org/Graphics/SVG/1.1/DTD/svg11.dtd"><svg t="1761207232294" class="icon" viewBox="0 0 1024 1024" version="1.1" xmlns="http://www.w3.org/2000/svg" p-id="36162" xmlns:xlink="http://www.w3.org/1999/xlink" width="32" height="32"><path d="M440.909244 0.831507c-3.368988 0.328999-7.457974 1.425995-9.086969 2.438992-1.628994 1.016997-7.363975 2.264992-12.745956 2.77799s-11.043962 1.753994-12.581957 2.756991c-1.537995 1.006997-6.402978 2.124993-10.812963 2.487991-4.406985 0.362999-9.124969 1.628994-10.484964 2.809991-1.355995 1.180996-6.506978 2.547991-11.448961 3.036989-4.937983 0.488998-9.970966 1.746994-11.183962 2.798991-1.208996 1.047996-4.923983 2.250992-8.250971 2.67399-3.326989 0.418999-6.786977 1.691994-7.688974 2.826991-0.901997 1.138996-4.574984 2.480991-8.163972 2.98499s-7.282975 1.827994-8.208972 2.945989c-0.925997 1.114996-3.02299 2.033993-4.658984 2.040993s-6.119979 1.558995-9.963966 3.448989c-3.843987 1.890994-8.013973 3.459988-9.264968 3.480988-1.250996 0.024-3.02699 0.946997-3.941987 2.050993s-3.462988 2.403992-5.66498 2.88699c-2.201992 0.481998-4.696984 1.715994-5.545981 2.73999s-3.756987 2.274992-6.458978 2.781991c-2.704991 0.506998-5.252982 1.792994-5.657981 2.85899-0.408999 1.061996-2.533991 2.327992-4.724983 2.80599-2.187993 0.481998-4.679984 1.715994-5.531981 2.742991-0.852997 1.030996-3.253989 2.295992-5.336982 2.81699s-4.892983 1.939993-6.244979 3.15899c-2.84499 2.564991-6.870976 5.000983-13.269954 8.034972-2.498991 1.184996-4.542984 2.722991-4.542985 3.420988 0 0.694998-1.729994 1.649994-3.843987 2.117993s-6.625977 3.351989-10.022965 6.402978c-3.396988 3.05099-6.915976 5.549981-7.821973 5.549981-0.901997 0-2.78199 1.257996-4.172986 2.79599s-3.109989 2.79599-3.819987 2.795991c-0.712998 0-3.784987 2.515991-6.828977 5.591981s-6.297978 5.591981-7.230975 5.591981c-0.929997 0-4.444985 2.515991-7.810973 5.59198-3.361988 3.074989-6.374978 5.591981-6.688977 5.591981s-5.549981 4.874983-11.63096 10.833963-14.394951 14.031952-18.473937 17.942939c-4.074986 3.910987-13.388954 13.538954-20.692929 21.398926s-14.426951 15.356947-15.827946 16.656943c-1.397995 1.299996-3.393988 4.252985-4.431985 6.559978s-5.049983 7.646974-8.918969 11.864959c-3.864987 4.217986-7.380975 9.061969-7.807973 10.767963-0.429999 1.701994-2.93899 5.455981-5.580981 8.334971-2.638991 2.88299-5.154982 6.657977-5.591981 8.387972-0.432999 1.732994-2.98099 5.535981-5.66498 8.457971-2.680991 2.91799-4.878983 6.384978-4.881984 7.698973-0.003 1.317995-1.187996 3.518988-2.627991 4.892984-1.442995 1.376995-3.088989 4.074986-3.662987 5.996979-0.569998 1.921993-1.799994 4.437985-2.732991 5.591981s-3.305989 5.241982-5.273982 9.086969a4290.315294 4290.315294 0 0 1-5.74598 11.183961c-6.458978 12.504957-9.320968 19.102935-9.320968 21.493927 0 1.467995-0.908997 3.01999-2.019993 3.445988s-2.463992 3.151989-3.00899 6.056979c-0.544998 2.90399-1.813994 6.101979-2.81999 7.108976-1.002997 1.002997-2.243992 4.165986-2.756991 7.024976-0.509998 2.85899-1.792994 6.185979-2.84499 7.394974s-2.313992 5.297982-2.80599 9.086969c-0.492998 3.788987-1.806994 7.940973-2.92199 9.226969s-2.369992 5.060983-2.788991 8.387971c-0.422999 3.326989-1.656994 7.076976-2.74699 8.331971s-2.355992 6.758977-2.812991 12.231958c-0.460998 5.472981-1.341995 9.949966-1.963993 9.949966-1.886994 0-4.039986 9.987966-4.050986 18.763936-0.003 5.91298-0.705998 9.047969-2.452992 10.976962-3.773987 4.172986-3.773987 171.199413 0 175.372399 1.746994 1.928993 2.449992 5.063983 2.452992 10.976963 0.01 8.77597 2.162993 18.763936 4.050986 18.763935 0.621998 0 1.502995 4.476985 1.963993 9.949966 0.457998 5.472981 1.722994 10.976962 2.812991 12.231958s2.323992 5.004983 2.74699 8.331972c0.418999 3.326989 1.673994 7.101976 2.788991 8.387971s2.428992 5.437981 2.92199 9.225968c0.492998 3.787987 1.753994 7.876973 2.80599 9.086969s2.334992 4.535984 2.84499 7.394975c0.513998 2.85899 1.753994 6.021979 2.756991 7.024976 1.006997 1.006997 2.274992 4.203986 2.81999 7.108975s1.897993 5.629981 3.00899 6.05698c1.110996 0.425999 2.019993 1.977993 2.019993 3.445988 0 2.389992 2.86199 8.988969 9.320968 21.493926 1.191996 2.306992 3.777987 7.338975 5.74598 11.183962s4.340985 7.932973 5.273982 9.086969c0.932997 1.152996 2.162993 3.669987 2.732991 5.59198 0.572998 1.921993 2.218992 4.619984 3.662987 5.99698 1.439995 1.372995 2.624991 3.574988 2.627991 4.892983 0.003 1.313995 2.201992 4.780984 4.881984 7.698974 2.683991 2.92199 5.231982 6.723977 5.66498 8.457971 0.436999 1.729994 2.95299 5.503981 5.591981 8.387971 2.641991 2.87999 5.150982 6.632977 5.580981 8.334971 0.425999 1.705994 3.941986 6.548978 7.807973 10.767963 3.868987 4.217986 7.880973 9.557967 8.918969 11.86496s3.03399 5.259982 4.431985 6.559977c1.400995 1.299996 8.523971 8.79697 15.827946 16.656943s16.617943 17.48794 20.692929 21.398927c4.078986 3.910987 12.392958 11.983959 18.473937 17.942938s11.315961 10.833963 11.63096 10.833963c0.314999 0 3.326989 2.515991 6.688977 5.591981 3.365988 3.074989 6.880976 5.591981 7.810973 5.591981 0.932997 0 4.186986 2.515991 7.230975 5.591981s6.115979 5.591981 6.828977 5.591981c0.708998 0 2.428992 1.257996 3.819987 2.79599s3.270989 2.79599 4.172986 2.79599c0.904997 0 4.424985 2.498991 7.821973 5.549981s7.908973 5.93398 10.022965 6.402978c2.113993 0.467998 3.843987 1.421995 3.843987 2.117993 0 0.698998 2.044993 2.236992 4.542985 3.420988 6.283978 2.98099 10.382964 5.444981 13.269954 7.978973 1.352995 1.187996 4.029986 2.620991 5.95198 3.186989s4.437985 1.848994 5.591981 2.85199c1.152996 1.002997 3.780987 2.243992 5.83998 2.756991s4.071986 1.785994 4.469984 2.82699c0.397999 1.040996 2.93899 2.309992 5.643981 2.816991 2.701991 0.506998 5.608981 1.757994 6.458978 2.78199s3.344989 2.257992 5.545981 2.739991c2.201992 0.481998 4.749984 1.781994 5.66498 2.88699s2.690991 2.026993 3.941987 2.050993c1.250996 0.021 5.420981 1.589995 9.264968 3.480988s8.327971 3.441988 9.963966 3.448988c1.635994 0.007 3.732987 0.925997 4.658984 2.040993 0.925997 1.117996 4.619984 2.442992 8.208972 2.94599s7.261975 1.844994 8.163972 2.98499c0.901997 1.135996 4.361985 2.407992 7.688974 2.82699 3.326989 0.422999 7.041976 1.624994 8.250971 2.673991 1.212996 1.051996 6.244979 2.309992 11.183962 2.79899 4.941983 0.488998 10.092965 1.855994 11.448961 3.03699 1.359995 1.180996 6.077979 2.445992 10.484964 2.80999 4.410985 0.362999 9.274968 1.481995 10.812963 2.487992 1.537995 1.002997 7.198975 2.243992 12.581957 2.75699s11.357961 1.960993 13.280954 3.214989c5.322982 3.480988 154.043472 3.480988 159.366454 0 1.921993-1.254996 7.897973-2.701991 13.280954-3.214989s11.043962-1.753994 12.581957-2.75699c1.537995-1.006997 6.402978-2.124993 10.812963-2.487992 4.406985-0.362999 9.124969-1.628994 10.484964-2.80999 1.355995-1.180996 6.506978-2.547991 11.448961-3.03699 4.937983-0.488998 9.970966-1.746994 11.183961-2.79899 1.208996-1.047996 4.923983-2.250992 8.250972-2.673991 3.326989-0.418999 6.786977-1.691994 7.688974-2.82699 0.901997-1.138996 4.574984-2.480991 8.163972-2.98499s7.282975-1.827994 8.208972-2.94599c0.925997-1.114996 3.02299-2.033993 4.658984-2.040993s6.119979-1.558995 9.963966-3.448988c3.843987-1.890994 8.013973-3.459988 9.264968-3.480988 1.250996-0.024 3.02699-0.946997 3.941986-2.050993s3.462988-2.403992 5.664981-2.88699c2.201992-0.481998 4.696984-1.715994 5.545981-2.739991s3.756987-2.274992 6.458978-2.78199c2.704991-0.506998 5.245982-1.774994 5.64398-2.816991s2.410992-2.313992 4.469985-2.82699c2.057993-0.513998 4.686984-1.753994 5.83998-2.756991s3.669987-2.285992 5.591981-2.85199c1.921993-0.565998 4.598984-1.998993 5.95198-3.186989 2.88699-2.533991 6.985976-4.997983 13.269954-7.978973 2.498991-1.184996 4.542984-2.722991 4.542984-3.420988 0-0.694998 1.729994-1.649994 3.843987-2.117993s6.625977-3.351989 10.022966-6.402978c3.396988-3.05099 6.915976-5.549981 7.821973-5.549981 0.901997 0 2.78199-1.257996 4.172986-2.79599s3.109989-2.79599 3.819987-2.79599c0.712998 0 3.784987-2.515991 6.828976-5.591981s6.297978-5.591981 7.230976-5.591981c0.929997 0 4.444985-2.515991 7.810973-5.591981 3.361988-3.074989 6.374978-5.591981 6.688977-5.591981s5.549981-4.874983 11.63096-10.833963 14.394951-14.031952 18.473937-17.942938c4.074986-3.910987 13.388954-13.538954 20.692929-21.398927s14.426951-15.356947 15.827945-16.656943c1.397995-1.299996 3.393988-4.252985 4.431985-6.559977s5.049983-7.646974 8.91897-11.86496c3.864987-4.217986 7.380975-9.061969 7.807973-10.767963 0.429999-1.701994 2.93899-5.455981 5.580981-8.334971 2.638991-2.88299 5.154982-6.657977 5.591981-8.387971 0.432999-1.732994 2.98099-5.535981 5.66498-8.457971 2.680991-2.91799 4.878983-6.384978 4.881983-7.698974 0.003-1.317995 1.187996-3.518988 2.627991-4.892983 1.442995-1.376995 3.088989-4.074986 3.662988-5.99698 0.569998-1.921993 1.799994-4.437985 2.732991-5.59198s3.305989-5.241982 5.273981-9.086969a4290.315294 4290.315294 0 0 1 5.745981-11.183962c6.458978-12.504957 9.320968-19.102935 9.320968-21.493926 0-1.467995 0.908997-3.01999 2.019993-3.445988s2.463992-3.151989 3.00899-6.05698c0.544998-2.90399 1.813994-6.101979 2.81999-7.108975 1.002997-1.002997 2.243992-4.165986 2.75699-7.024976 0.509998-2.85899 1.792994-6.185979 2.844991-7.394975s2.313992-5.297982 2.80599-9.086969c0.492998-3.787987 1.806994-7.939973 2.92199-9.225968s2.369992-5.060983 2.788991-8.387971c0.422999-3.326989 1.656994-7.076976 2.74699-8.331972s2.355992-6.758977 2.81299-12.231958c0.460998-5.472981 1.341995-9.949966 1.963994-9.949966 1.886994 0 4.039986-9.987966 4.050986-18.763935 0.003-5.91298 0.705998-9.047969 2.452991-10.976963 2.274992-2.512991 2.445992-8.71297 2.445992-87.686699s-0.170999-85.173708-2.445992-87.6867c-1.746994-1.928993-2.449992-5.063983-2.452991-10.976962-0.01-8.77597-2.162993-18.763936-4.050986-18.763936-0.621998 0-1.502995-4.476985-1.963994-9.949966-0.457998-5.472981-1.722994-10.976962-2.81299-12.231958s-2.323992-5.004983-2.74699-8.331971c-0.418999-3.326989-1.673994-7.101976-2.788991-8.387971s-2.428992-5.437981-2.92199-9.226969c-0.492998-3.787987-1.753994-7.876973-2.80599-9.086969s-2.334992-4.535984-2.844991-7.394974c-0.513998-2.85899-1.753994-6.021979-2.75699-7.024976-1.006997-1.006997-2.274992-4.203986-2.81999-7.108976s-1.897993-5.629981-3.00899-6.056979c-1.110996-0.425999-2.019993-1.977993-2.019993-3.445988 0-2.389992-2.86199-8.988969-9.320968-21.493927-1.191996-2.306992-3.777987-7.338975-5.745981-11.183961s-4.340985-7.932973-5.273981-9.086969c-0.932997-1.152996-2.162993-3.669987-2.732991-5.591981-0.572998-1.921993-2.218992-4.619984-3.662988-5.996979-1.439995-1.372995-2.624991-3.574988-2.627991-4.892984-0.003-1.313995-2.201992-4.780984-4.881983-7.698973-2.683991-2.92199-5.231982-6.723977-5.66498-8.457971-0.436999-1.729994-2.95299-5.503981-5.591981-8.387971-2.641991-2.87999-5.150982-6.632977-5.580981-8.334972-0.425999-1.705994-3.941986-6.548978-7.807973-10.767963-3.868987-4.217986-7.880973-9.557967-8.91897-11.864959s-3.03399-5.259982-4.431985-6.559978c-1.400995-1.299996-8.523971-8.79697-15.827945-16.656943s-16.617943-17.48794-20.692929-21.398926c-4.078986-3.910987-12.392958-11.983959-18.473937-17.942939s-11.315961-10.833963-11.63096-10.833963c-0.314999 0-3.326989-2.515991-6.688977-5.591981-3.365988-3.074989-6.880976-5.591981-7.810973-5.59198-0.932997 0-4.186986-2.515991-7.230976-5.591981s-6.115979-5.591981-6.828976-5.591981c-0.708998 0-2.428992-1.257996-3.819987-2.795991s-3.270989-2.79599-4.172986-2.79599c-0.904997 0-4.424985-2.498991-7.821973-5.549981s-7.908973-5.93398-10.022966-6.402978c-2.113993-0.467998-3.843987-1.421995-3.843987-2.117993 0-0.698998-2.044993-2.236992-4.542984-3.420988-6.398978-3.03399-10.424964-5.468981-13.269954-8.034972-1.352995-1.219996-4.161986-2.638991-6.244979-3.15899s-4.483985-1.785994-5.336982-2.81699c-0.852997-1.026996-3.344989-2.260992-5.531981-2.742991-2.190992-0.478998-4.315985-1.743994-4.724984-2.80599-0.404999-1.065996-2.95299-2.351992-5.65798-2.85899-2.701991-0.506998-5.608981-1.757994-6.458978-2.781991s-3.344989-2.257992-5.545981-2.73999c-2.201992-0.481998-4.749984-1.781994-5.664981-2.88699s-2.690991-2.026993-3.941986-2.050993c-1.250996-0.021-5.420981-1.589995-9.264968-3.480988s-8.327971-3.441988-9.963966-3.448989c-1.635994-0.007-3.732987-0.925997-4.658984-2.040993-0.925997-1.117996-4.619984-2.442992-8.208972-2.945989s-7.261975-1.844994-8.163972-2.98499c-0.901997-1.135996-4.361985-2.407992-7.688974-2.826991-3.326989-0.422999-7.041976-1.624994-8.250972-2.67399-1.212996-1.051996-6.244979-2.309992-11.183961-2.798991-4.941983-0.488998-10.092965-1.855994-11.448961-3.036989-1.359995-1.180996-6.077979-2.445992-10.484964-2.809991-4.410985-0.362999-9.274968-1.481995-10.812963-2.487991-1.537995-1.002997-7.198975-2.243992-12.581957-2.756991s-11.357961-1.960993-13.280954-3.214989C588.338738 0.616508 460.581176-1.078486 440.911244 0.829507z m-30.890894 156.300464c6.356978 3.288989 6.961976 5.85698 6.961976 29.513899 0 29.363899-0.254999 29.740898-27.958904 41.109859-102.382649 42.014856-177.88539 143.929507-189.502351 255.783124-4.535984 43.69285 0.722998 94.801675 13.377954 130.009554 32.393889 90.111691 93.707679 157.53146 174.027404 191.344344 30.551895 12.860956 30.055897 12.151958 30.055897 42.874853v22.478923l-4.151986 3.980986c-4.811984 4.609984-13.538954 5.283982-22.254924 1.715994-2.77499-1.135996-9.764967-3.805987-15.530947-5.937979-60.883791-22.485923-124.329574-70.292759-164.765435-124.151575-50.406827-67.15077-77.044736-146.207499-77.068736-228.763215-0.014-41.522858 8.044972-89.786692 20.776929-124.417574a11184.361663 11184.361663 0 0 0 4.965983-13.556954c5.329982-14.60895 22.751922-50.329827 26.850908-55.051811 1.051996-1.215996 1.914993-2.613991 1.914994-3.106989s4.168986-7.048976 9.267968-14.56695c43.496851-64.15578 105.03464-114.005609 174.774401-141.587515 26.616909-10.526964 31.027894-11.410961 38.257869-7.670974z m238.853181 6.371979c72.92075 28.580902 133.835541 77.418735 178.224389 142.88751 5.098983 7.516974 9.267968 14.073952 9.267968 14.56695s0.862997 1.890994 1.914994 3.106989c4.098986 4.721984 21.520926 40.442861 26.850908 55.051811a11184.361663 11184.361663 0 0 0 4.965983 13.556954c68.380766 186.021362-34.756881 408.738599-221.057243 477.343364-5.76698 2.124993-12.755956 4.790984-15.530946 5.926979-8.71597 3.567988-17.44294 2.89399-22.254924-1.715994l-4.151986-3.980986v-47.439837l5.301982-5.025983c3.141989-2.97799 9.544967-6.657977 15.726946-9.030969 84.456711-32.459889 149.475488-101.791651 183.054372-195.202331 52.54882-146.176499-29.342899-325.553884-176.124396-385.791678-27.703905-11.368961-27.958904-11.74596-27.958904-41.109859 0-35.238879 4.521984-37.744871 41.770857-23.14292zM535.703919 266.322597c7.279975 4.298985 7.737973 6.216979 8.488971 35.483878l0.698997 27.259907 10.484964 3.197989c42.731854 13.024955 65.860774 33.648885 78.134732 69.659761 9.320968 27.350906 4.815983 32.673888-27.644905 32.683888-21.818925 0.003-27.158907-1.516995-30.474895-8.68497-0.810997-1.757994-2.97399-6.625977-4.804984-10.823963-12.084959-27.706905-45.293845-41.071859-84.037712-33.815884-36.479875 6.828977-55.634809 45.597844-35.951877 72.769751 10.568964 14.58795 23.701919 19.043935 89.402694 30.331896 77.708734 13.349954 110.594621 44.646847 110.74162 105.398638 0.133 54.435813-35.989877 97.513666-93.26768 111.231619-14.080952 3.372988-13.280954 1.554995-13.280954 30.202897 0 36.423875-2.047993 38.901867-32.15289 38.901866-30.118897 0-32.15289-2.466992-32.15289-38.991866 0-15.209948-0.551998-25.487913-1.393995-26.008911-0.764997-0.474998-8.547971-2.655991-17.288941-4.850983-49.144832-12.322958-79.700727-41.511858-90.52069-86.466704-3.295989-13.685953-2.99499-17.019942 2.099993-23.31792l3.389989-4.193986h25.183913c30.499895 0 30.366896-0.07 36.112876 18.767936 10.145965 33.253886 32.725888 47.634837 74.807744 47.634837 43.88185 0 71.057756-21.430927 71.057756-56.036808 0-34.703881-16.851942-45.202845-93.826678-58.4518-80.252725-13.811953-111.825617-42.818853-111.978616-102.892647-0.133-51.660823 32.851887-90.898688 86.980702-103.458646 16.002945-3.714987 14.58395-0.862997 15.376947-30.894894 0.971997-36.720874 1.040996-36.800874 31.935891-36.856873 16.009945-0.031 20.825929 0.415999 23.880918 2.222992z" p-id="36163" fill="#ffffff"></path></svg>