<?xml version="1.0" standalone="no"?><!DOCTYPE svg PUBLIC "-//W3C//DTD SVG 1.1//EN" "http://www.w3.org/Graphics/SVG/1.1/DTD/svg11.dtd"><svg t="1761207257901" class="icon" viewBox="0 0 1024 1024" version="1.1" xmlns="http://www.w3.org/2000/svg" p-id="37640" xmlns:xlink="http://www.w3.org/1999/xlink" width="32" height="32"><path d="M577.408 461.227v90.283c103.083-5.547 178.731-23.68 178.731-45.184 0.043-21.461-75.605-39.595-178.731-45.099zM265.472 506.325c0 21.76 77.355 40.021 182.272 45.355v-90.667c-104.917 5.333-182.272 23.595-182.272 45.312z" fill="#ffffff" p-id="37641"></path><path d="M512 0C229.248 0 0 229.248 0 512s229.248 512 512 512 512-229.248 512-512S794.752 0 512 0z m65.408 582.229V832H447.744V582.229c-142.933-6.827-250.368-36.139-250.368-71.253 0-35.072 107.435-64.384 250.368-71.253v-78.251H278.528V237.867h465.749v123.605H577.45v78.336c142.336 6.997 249.173 36.224 249.173 71.168-0.043 35.029-106.88 64.256-249.216 71.253z" fill="#ffffff" p-id="37642"></path></svg>