<?xml version="1.0" standalone="no"?><!DOCTYPE svg PUBLIC "-//W3C//DTD SVG 1.1//EN" "http://www.w3.org/Graphics/SVG/1.1/DTD/svg11.dtd"><svg t="1761118505132" class="icon" viewBox="0 0 1024 1024" version="1.1" xmlns="http://www.w3.org/2000/svg" p-id="4547" xmlns:xlink="http://www.w3.org/1999/xlink" width="32" height="32"><path d="M52.01036 1023.68c-5.8-2.44-11.8-4.48-17.32-7.44-37.04-19.96-46.08-69.08-18.72-101.12 3.04-3.56 6.4-6.8 9.68-10.08 127.96-128 255.92-256 383.92-383.96 2.6-2.6 5.56-4.76 9.12-7.8-3.52-3.68-6.12-6.52-8.84-9.24C280.77036 374.88 151.61036 245.76 22.49036 116.56c-29.88-29.88-29.96-72.64-0.4-99.12 25.04-22.44 62.16-22.84 87.68-0.84 4.04 3.48 7.72 7.36 11.48 11.12 127.48 127.52 255 255.04 382.48 382.52 2.56 2.56 5.2 5 8.32 7.92 3.2-3.08 6.08-5.72 8.84-8.48 129.16-129.16 258.24-258.36 387.44-387.48 36.12-36.08 93.12-25.52 111.04 20.24 1.68 4.28 3.08 8.68 4.6 13v22c-4.88 20.28-17.92 34.92-32.28 49.2-126 125.64-251.68 251.52-377.56 377.28-2.72 2.72-6.68 4.2-11.04 6.84 5.88 5.28 8.72 7.6 11.28 10.2 126.04 126.04 252 252.2 378.2 378.04 14.16 14.12 26.72 28.68 31.4 48.64v22c-7.6 27.36-24.48 45.8-52 54h-30c-19.2-6.52-33-20.16-46.92-34.12-124.72-125-249.6-249.84-374.44-374.72-2.72-2.72-5.6-5.36-9.96-9.48-3.08 3.92-5.2 7.36-8 10.2-125.28 125.4-250.64 250.68-375.8 376.16-13.24 13.28-26.68 25.76-44.84 31.96H52.01036z" p-id="4548" fill="#d81e06"></path></svg>